<?xml version="1.0" standalone="no"?>
<!DOCTYPE svg PUBLIC "-//W3C//DTD SVG 20010904//EN"
 "http://www.w3.org/TR/2001/REC-SVG-20010904/DTD/svg10.dtd">
<svg version="1.0" xmlns="http://www.w3.org/2000/svg"
 width="1024.000000pt" height="1024.000000pt" viewBox="0 0 1024.000000 1024.000000"
 preserveAspectRatio="xMidYMid meet">

<g transform="translate(0.000000,1024.000000) scale(0.100000,-0.100000)"
fill="#000000" stroke="none">
<path d="M4610 6735 c0 -15 19 -55 31 -65 3 -3 12 -23 19 -45 7 -22 16 -42 19
-45 10 -8 29 -71 36 -120 4 -25 13 -48 19 -52 14 -9 13 -327 -1 -337 -5 -3
-18 -63 -28 -133 -10 -71 -21 -128 -25 -128 -4 0 -13 -29 -20 -65 -7 -36 -16
-65 -21 -65 -5 0 -14 -20 -21 -45 -7 -25 -16 -45 -20 -45 -4 0 -15 -25 -23
-55 -9 -30 -20 -55 -23 -55 -4 0 -14 -15 -22 -32 -14 -33 -22 -45 -51 -77 -9
-10 -18 -23 -20 -28 -6 -16 -62 -84 -86 -106 -13 -12 -23 -24 -23 -29 0 -5
-25 -33 -55 -63 -30 -30 -55 -58 -55 -63 0 -4 -20 -27 -45 -50 -25 -23 -45
-46 -45 -50 0 -5 -41 -51 -90 -103 -50 -52 -112 -118 -138 -147 -26 -29 -64
-70 -84 -92 -21 -21 -38 -43 -38 -47 0 -8 -40 -57 -80 -98 -11 -12 -20 -24
-20 -28 0 -4 -7 -15 -15 -24 -52 -60 -65 -77 -70 -94 -4 -11 -10 -19 -14 -19
-5 0 -14 -13 -21 -30 -7 -16 -16 -30 -21 -30 -4 0 -16 -17 -25 -37 -10 -21
-24 -42 -31 -46 -7 -4 -13 -14 -13 -22 0 -8 -6 -18 -13 -22 -7 -4 -19 -23 -26
-40 -8 -18 -17 -33 -22 -33 -5 0 -16 -25 -24 -55 -9 -30 -20 -55 -24 -55 -5 0
-14 -20 -21 -45 -7 -25 -16 -45 -20 -45 -5 0 -13 -22 -20 -50 -7 -27 -15 -50
-19 -50 -8 0 -41 -162 -41 -198 0 -12 -4 -22 -8 -22 -11 0 -32 -145 -32 -212
0 -27 -4 -48 -10 -48 -6 0 -10 -43 -10 -110 0 -60 4 -110 8 -110 4 0 14 -57
21 -127 7 -70 16 -130 19 -133 4 -3 16 -45 26 -95 10 -49 22 -92 26 -95 5 -3
14 -27 20 -53 7 -26 16 -47 20 -47 4 0 12 -18 19 -40 6 -22 15 -40 20 -40 4 0
16 -25 26 -55 11 -30 22 -55 26 -55 4 0 12 -14 19 -30 7 -17 16 -30 20 -30 4
0 11 -11 14 -24 3 -14 12 -31 20 -38 7 -8 21 -28 30 -46 9 -18 21 -32 26 -32
6 0 10 -6 10 -14 0 -8 11 -24 25 -37 13 -13 25 -28 25 -33 0 -4 11 -20 25 -35
14 -14 77 -79 139 -143 62 -65 118 -118 124 -118 6 0 16 -9 22 -20 6 -11 17
-20 25 -20 8 0 18 -6 22 -13 4 -7 25 -21 46 -31 20 -9 37 -21 37 -25 0 -4 18
-14 40 -21 22 -7 40 -17 40 -22 0 -4 6 -8 13 -8 7 0 22 -8 33 -18 10 -10 41
-26 69 -37 27 -10 56 -24 63 -31 7 -7 28 -16 47 -20 19 -3 35 -9 35 -13 0 -4
23 -14 50 -21 28 -7 50 -17 50 -22 0 -4 10 -8 23 -8 12 0 44 -7 71 -15 27 -8
62 -15 77 -15 15 0 29 -4 31 -9 8 -22 207 -33 386 -22 98 7 179 16 180 21 2 6
17 10 33 10 55 0 20 17 -47 23 -37 4 -70 10 -73 15 -3 4 -40 13 -81 20 -41 7
-77 16 -80 21 -3 5 -32 14 -64 21 -33 7 -65 18 -72 24 -6 7 -37 18 -68 25 -31
7 -56 16 -56 21 0 5 -16 14 -35 20 -19 6 -35 15 -35 19 0 4 -16 13 -35 21 -19
8 -35 16 -35 19 0 3 -18 15 -40 25 -22 11 -40 22 -40 26 0 4 -13 13 -30 20
-16 7 -30 15 -30 19 0 4 -15 15 -32 26 -18 10 -37 24 -41 32 -4 7 -12 13 -18
13 -11 0 -199 186 -199 197 0 5 -13 21 -30 36 -16 16 -30 32 -30 37 0 4 -18
26 -39 49 -22 23 -43 55 -46 72 -4 16 -11 29 -16 29 -6 0 -15 13 -20 30 -6 16
-14 30 -18 30 -4 0 -14 18 -21 40 -7 22 -16 40 -20 40 -4 0 -15 26 -26 58 -10
31 -21 59 -24 62 -9 8 -30 85 -30 108 0 11 -4 22 -10 24 -5 1 -15 38 -22 80
-7 43 -16 78 -20 78 -5 0 -8 122 -8 270 0 149 4 270 8 270 4 0 14 34 21 75 7
41 16 75 20 75 5 0 14 27 21 60 7 33 17 60 21 60 5 0 9 7 9 15 0 19 32 85 41
85 3 0 12 20 19 45 7 25 16 45 21 45 4 0 10 14 14 30 4 17 15 34 24 40 10 5
24 24 32 42 7 18 19 37 26 41 7 4 13 13 13 19 0 6 10 21 23 33 32 33 40 45 61
93 11 23 23 42 28 42 5 0 20 12 33 28 50 57 112 125 158 175 26 28 47 56 47
61 0 6 18 26 40 45 22 19 40 39 40 44 0 5 18 27 40 48 22 22 40 43 40 47 0 5
20 26 43 48 24 21 50 50 57 63 16 32 29 47 63 79 15 15 27 32 27 39 0 7 4 13
10 13 5 0 17 14 25 31 9 16 25 40 36 52 11 12 26 29 34 38 8 9 15 21 15 27 0
6 8 16 18 21 10 5 24 25 32 45 7 20 17 36 21 36 5 0 14 18 20 40 7 22 15 40
19 40 4 0 15 16 24 35 9 19 21 35 25 35 4 0 13 18 20 40 6 22 15 40 20 40 4 0
13 23 21 52 7 29 19 58 25 65 7 6 18 43 25 80 7 37 18 71 24 75 17 11 15 420
-1 426 -7 2 -13 15 -13 28 0 35 -31 154 -40 154 -4 0 -13 21 -21 47 -7 26 -21
55 -31 65 -10 10 -18 24 -18 32 0 8 -6 16 -14 19 -7 3 -16 19 -19 36 -7 35
-199 234 -257 266 -19 11 -41 28 -48 38 -7 9 -20 17 -28 17 -8 0 -14 4 -14 9
0 5 -8 12 -19 16 -10 3 -29 14 -41 25 -28 24 -40 25 -40 5z"/>
<path d="M6020 6650 c0 -5 5 -10 10 -10 6 0 10 5 10 10 0 6 -4 10 -10 10 -5 0
-10 -4 -10 -10z"/>
<path d="M7280 4820 c0 -5 5 -10 10 -10 6 0 10 5 10 10 0 6 -4 10 -10 10 -5 0
-10 -4 -10 -10z"/>
<path d="M4930 2340 c0 -5 5 -10 10 -10 6 0 10 5 10 10 0 6 -4 10 -10 10 -5 0
-10 -4 -10 -10z"/>
<path d="M5126 2146 c10 -8 21 -12 24 -10 5 6 -21 24 -34 24 -6 0 -1 -6 10
-14z"/>
<path d="M5217 2080 c10 -11 23 -20 31 -20 7 0 15 -7 18 -15 4 -8 12 -15 20
-15 21 0 17 18 -5 25 -10 3 -29 14 -41 25 -30 26 -45 26 -23 0z"/>
</g>
</svg>
